<svg width="1802" height="1235" viewBox="0 0 1802 1235" fill="none" xmlns="http://www.w3.org/2000/svg">
<path d="M945.48 937.45L921.36 969.62L945.48 955.04L970.11 937.45L996.25 922.87L1026.41 906.28L1069.14 889.7L1126.94 868.58L1160.62 860.04L1197.82 853L1229.48 847.47L1273.21 842.45L1310.41 839.43C1310.41 839.43 1368.22 837.42 1369.72 842.45C1371.23 847.47 1335.04 850.99 1335.04 850.99L1289.3 857.53L1244.56 866.07L1189.77 881.65L1149.06 896.73L1122.92 911.31L1189.77 913.82H1210.38L1236.52 915.33L1267.18 919.35L1295.83 922.87L1343.08 929.91L1396.36 939.96L1455.17 947.5L1483.32 952.03L1525.55 955.54L1571.29 958.06H1622.06L1675.84 955.54L1717.06 950.01L1748.72 940.97C1748.72 940.97 1775.5 931 1780.89 929.41C1786.29 927.81 1800.5 925.5 1801 923.88C1801.5 922.25 1791.45 918.85 1791.45 918.85L1761.79 908.8L1736.66 900.75L1710.02 891.2L1674.33 874.11L1627.58 850.99L1581.84 826.86L1528.06 799.72L1471.76 770.57L1430.04 753.98L1387.82 741.41L1363.19 734.88L1342.08 729.85L1324.49 727.84H1283.77L1249.09 732.37L1226.97 737.39L1197.82 747.45L1160.62 761.02L1128.95 777.1L1091.25 803.24L1059.08 825.36L1029.43 850.99L997.76 881.15L968.1 911.31L945.48 937.45Z" fill="url(#paint0_linear_663_14)"/>
<path d="M403.5 1059.18C403.5 1059.18 440.5 1049.5 440.5 1047C440.5 1044.5 435.91 1040.73 435.91 1040.73L420.95 1023.27L403.5 1003.33L373.571 977.89L343.647 956.45L305.742 932.01L255.37 901.59L198.014 860.69L168.589 837.25C168.589 837.25 157.616 826.28 157.118 825.28C156.619 824.29 155.123 820.3 157.118 818.8C159.113 817.31 170.584 822.79 170.584 822.79L202.503 844.73L255.37 878.65L302.75 904.58L353.123 932.01L398.508 956.45L435.91 985.37C435.91 985.37 473.13 1019.57 475.81 1019.28C478.5 1019 488.28 1003.33 488.28 1003.33L504.24 972.9L515.21 936.5L512.22 897.1L504.24 864.18L485.79 833.26L461.35 801.35L426.44 775.91L388.534 760.45L332.674 746.99L276.815 731.03L217.465 720.06L167.591 709.08L120.211 694.62L88.2906 680.16L48.8906 661.71C48.8906 661.71 18.9316 640.03 18.9656 639.76C18.9996 639.5 6.49962 625 2.50762 625.3C-1.48438 625.6 2.50762 657.22 2.50762 657.22L10.9856 734.02L18.9656 783.39L31.4346 830.27L42.4066 870.67L57.8676 914.55L82.3057 960.44L107.243 997.34L139.163 1028.76L167.591 1048.21L202.503 1062.67L232.926 1067.66L295.269 1070.65L353.123 1067.66L403.5 1059.18Z" fill="url(#paint1_linear_663_14)"/>
<path d="M839.92 1087.36L876.76 1030.53C877.26 1029.78 876.57 1028.81 875.69 1029.02C867.53 1031 841.58 1037.3 839.91 1037.84C837.92 1038.48 811.07 1043.53 806.65 1044.78C802.23 1046.02 767.48 1057.06 762.97 1058.08C758.45 1059.11 748.44 1063.11 737.16 1066.57C725.99 1070 703.19 1077.53 702.71 1077.69C702.7 1077.69 702.7 1077.69 702.68 1077.69L644.9 1093.77L582.28 1109.18L507.83 1122.93L418.48 1130.98L350.846 1138.41H291.533L240.263 1137L190.076 1130.98C190.024 1130.97 189.972 1130.96 189.922 1130.95L142.319 1117.42C142.27 1117.4 142.222 1117.39 142.176 1117.37L97.317 1096.79L62.8259 1077.69L39.2009 1061.62L11.1229 1038.54C11.0769 1038.5 11.027 1038.47 10.974 1038.44L6.52895 1035.97L2.87398 1034.51C2.21698 1034.24 1.50295 1034.73 1.50295 1035.43V1038.45C1.50295 1038.47 1.50094 1038.49 1.49794 1038.51C1.43294 1038.9 2.50996 1043.19 2.65596 1043.56C2.76696 1043.84 2.88594 1044.16 3.01094 1044.51C4.44894 1048.58 10.364 1060.45 10.906 1061.54C10.936 1061.6 10.967 1061.65 11.007 1061.7L42.155 1101.74C42.197 1101.79 42.2429 1101.84 42.2949 1101.88L100.986 1152.05C101.014 1152.07 101.014 1152.07 101.044 1152.09C102.013 1152.75 146.493 1182.96 164.362 1191.29C182.268 1199.64 236.326 1215.89 237.285 1216.18C237.314 1216.19 237.276 1216.18 237.307 1216.19C238.295 1216.39 316.208 1232.01 326.719 1233.01C337.255 1234.01 417.83 1234.51 418.47 1234.52C418.49 1234.52 418.49 1234.52 418.51 1234.51L503.13 1229.99C503.14 1229.99 503.14 1229.99 503.14 1229.99H503.15C503.48 1229.96 570.97 1224.29 582.28 1223.12C593.54 1221.96 660.91 1209.58 661.98 1209.39C662.01 1209.38 661.97 1209.39 662 1209.38C663.04 1209.08 714.79 1194.02 720.28 1191.91C725.83 1189.78 755.37 1176.56 762.97 1171.1C770.56 1165.65 800.52 1137.52 806.65 1130.98C812.74 1124.48 839.54 1087.88 839.9 1087.39C839.91 1087.38 839.91 1087.37 839.92 1087.37V1087.36Z" fill="#F61C01"/>
<path d="M528.28 864.56C528.28 864.56 537.23 911.63 543.86 911.81C550.5 912 556.5 896 556.5 896L569 871.5L599.16 829.88L639.37 776.1L670.53 735.38L709.24 686.12L753.47 627.31L792.18 577.05L810.27 551.91L830.38 526.28L845.96 501.15L862.55 474.5L877.63 450.88L889.19 429.77C889.19 429.77 901.25 408.15 902.76 411.67C904.27 415.19 900.75 429.27 900.75 429.27L895.22 450.88L885.17 474.5L870.09 511.2L845.96 556.94L813.29 605.19L765.53 671.54L712.25 742.92L670.53 807.26L639.37 873.11L616.75 929.91L601.17 984.7C601.17 984.7 595.29 1010.19 597.15 1012.34C599 1014.5 611.72 1012.34 611.72 1012.34L654.45 1008.32L693.66 1002.79L736.38 993.24L777.6 981.18L829.37 963.08L882.65 938.96L920.35 919.35L952.52 898.24L988.71 867.58L1022.39 831.39L1038.98 810.78L1052.05 790.67L1066.62 771.57L1084.22 734.88L1110.35 673.05L1125.43 622.28L1135.49 554.43V449.87L1126.94 369.45L1110.35 285.004L1087.74 209.606L1068.13 138.23L1042.5 79.922L1019.88 27.143C1019.88 27.143 1008 0 1003.29 0C998.58 0 991 19.917 989 23C987 26.083 969.11 51.773 969.11 51.773L935.93 90.478L912.81 118.626L879.13 151.299L820.32 199.051L750.46 252.332L693.66 291.539L611.22 347.33L517.22 424.24L458.92 480.54L431.27 514.72L406.64 550.91L380.503 597.15L368.439 627.31L357.883 663L352.857 686.12C352.857 686.12 349.187 723.66 350.344 725.33C351.5 727 380.503 735.38 380.503 735.38L413.18 747.95L438.81 759.01L464.95 776.1L483.55 794.69L501.64 815.81L517.22 837.42L528.28 864.56Z" fill="url(#paint2_linear_663_14)"/>
<path d="M933.92 1029.94C933.92 1029.94 837.41 1158.62 839.93 1160.63C842.44 1162.64 880.64 1145.04 880.64 1145.04C880.64 1145.04 932.92 1127.95 947.49 1123.93C962.07 1119.91 1001.28 1111.87 1033.95 1104.83C1066.62 1097.79 1093.77 1093.27 1132.97 1087.74C1172.18 1082.21 1227.47 1075.17 1227.47 1075.17L1336.05 1072.66L1427.03 1080.2L1509.96 1096.79L1609.99 1117.9L1677.35 1143.54L1724.09 1168.17C1724.09 1168.17 1792.45 1204.36 1794.47 1202.35C1796.48 1200.34 1760.79 1168.17 1760.79 1168.17L1708.01 1117.9L1621.05 1054.06L1536.6 1017.87C1536.6 1017.87 1446.13 982.18 1433.06 979.67C1419.99 977.16 1366.71 967.61 1350.62 966.6C1334.54 965.6 1265.67 961.58 1249.59 961.58C1233.5 961.58 1117.89 973.14 1099.3 974.64C1080.7 976.15 1003.29 987.21 982.68 993.24C962.07 999.27 971.12 996.76 960.56 1004.8C950.01 1012.85 933.92 1029.94 933.92 1029.94Z" fill="#0238D0"/>
<defs>
<linearGradient id="paint0_linear_663_14" x1="1775.36" y1="814.3" x2="1014.85" y2="734.38" gradientUnits="userSpaceOnUse">
<stop stop-color="#00AA46"/>
<stop offset="1" stop-color="#07A748"/>
</linearGradient>
<linearGradient id="paint1_linear_663_14" x1="-38.7104" y1="639.88" x2="258.861" y2="1070.65" gradientUnits="userSpaceOnUse">
<stop stop-color="#30B649"/>
<stop offset="1" stop-color="#00AA4F"/>
</linearGradient>
<linearGradient id="paint2_linear_663_14" x1="742.92" y1="0" x2="742.92" y2="1012.34" gradientUnits="userSpaceOnUse">
<stop stop-color="#99CA39"/>
<stop offset="1" stop-color="#00AB4F"/>
</linearGradient>
</defs>
</svg>
