<svg width="1925" height="1525" viewBox="0 0 1925 1525" fill="none" xmlns="http://www.w3.org/2000/svg">
<path d="M1001.48 937.45L977.36 969.62L1001.48 955.04L1026.11 937.45L1052.25 922.87L1082.41 906.28L1125.14 889.7L1182.94 868.58L1216.62 860.04L1253.82 853L1285.48 847.47L1329.21 842.45L1366.41 839.43C1366.41 839.43 1424.22 837.42 1425.72 842.45C1427.23 847.47 1391.04 850.99 1391.04 850.99L1345.3 857.53L1300.56 866.07L1245.77 881.65L1205.06 896.73L1178.92 911.31L1245.77 913.82H1266.38L1292.52 915.33L1323.18 919.35L1351.83 922.87L1399.08 929.91L1452.36 939.96L1511.17 947.5L1539.32 952.03L1581.55 955.54L1627.29 958.06H1678.06L1731.84 955.54L1773.06 950.01L1804.72 940.97C1804.72 940.97 1831.5 931 1836.89 929.41C1842.29 927.81 1856.5 925.5 1857 923.88C1857.5 922.25 1847.45 918.85 1847.45 918.85L1817.79 908.8L1792.66 900.75L1766.02 891.2L1730.33 874.11L1683.58 850.99L1637.84 826.86L1584.06 799.72L1527.76 770.57L1486.04 753.98L1443.82 741.41L1419.19 734.88L1398.08 729.85L1380.49 727.84H1339.77L1305.09 732.37L1282.97 737.39L1253.82 747.45L1216.62 761.02L1184.95 777.1L1147.25 803.24L1115.08 825.36L1085.43 850.99L1053.76 881.15L1024.1 911.31L1001.48 937.45Z" fill="url(#paint0_linear_663_14)"/>
<path d="M459.5 1059.18C459.5 1059.18 496.5 1049.5 496.5 1047C496.5 1044.5 491.91 1040.73 491.91 1040.73L476.95 1023.27L459.5 1003.33L429.571 977.89L399.647 956.45L361.742 932.01L311.37 901.59L254.014 860.69L224.589 837.25C224.589 837.25 213.616 826.28 213.118 825.28C212.619 824.29 211.123 820.3 213.118 818.8C215.113 817.31 226.584 822.79 226.584 822.79L258.503 844.73L311.37 878.65L358.75 904.58L409.123 932.01L454.508 956.45L491.91 985.37C491.91 985.37 529.13 1019.57 531.81 1019.28C534.5 1019 544.28 1003.33 544.28 1003.33L560.24 972.9L571.21 936.5L568.22 897.1L560.24 864.18L541.79 833.26L517.35 801.35L482.44 775.91L444.534 760.45L388.674 746.99L332.815 731.03L273.465 720.06L223.591 709.08L176.211 694.62L144.291 680.16L104.891 661.71C104.891 661.71 74.9316 640.03 74.9656 639.76C74.9996 639.5 62.4996 625 58.5076 625.3C54.5156 625.6 58.5076 657.22 58.5076 657.22L66.9856 734.02L74.9656 783.39L87.4346 830.27L98.4066 870.67L113.868 914.55L138.306 960.44L163.243 997.34L195.163 1028.76L223.591 1048.21L258.503 1062.67L288.926 1067.66L351.269 1070.65L409.123 1067.66L459.5 1059.18Z" fill="url(#paint1_linear_663_14)"/>
<path d="M895.92 1087.36L932.76 1030.53C933.26 1029.78 932.57 1028.81 931.69 1029.02C923.53 1031 897.58 1037.3 895.91 1037.84C893.92 1038.48 867.07 1043.53 862.65 1044.78C858.23 1046.02 823.48 1057.06 818.97 1058.08C814.45 1059.11 804.44 1063.11 793.16 1066.57C781.99 1070 759.19 1077.53 758.71 1077.69C758.7 1077.69 758.7 1077.69 758.68 1077.69L700.9 1093.77L638.28 1109.18L563.83 1122.93L474.48 1130.98L406.846 1138.41H347.533L296.263 1137L246.076 1130.98C246.024 1130.97 245.972 1130.96 245.922 1130.95L198.319 1117.42C198.27 1117.4 198.222 1117.39 198.176 1117.37L153.317 1096.79L118.826 1077.69L95.2009 1061.62L67.1229 1038.54C67.0769 1038.5 67.027 1038.47 66.974 1038.44L62.5289 1035.97L58.874 1034.51C58.217 1034.24 57.5029 1034.73 57.5029 1035.43V1038.45C57.5029 1038.47 57.5009 1038.49 57.4979 1038.51C57.4329 1038.9 58.51 1043.19 58.656 1043.56C58.767 1043.84 58.8859 1044.16 59.0109 1044.51C60.4489 1048.58 66.364 1060.45 66.906 1061.54C66.936 1061.6 66.967 1061.65 67.007 1061.7L98.155 1101.74C98.197 1101.79 98.2429 1101.84 98.2949 1101.88L156.986 1152.05C157.014 1152.07 157.014 1152.07 157.044 1152.09C158.013 1152.75 202.493 1182.96 220.362 1191.29C238.268 1199.64 292.326 1215.89 293.285 1216.18C293.314 1216.19 293.276 1216.18 293.307 1216.19C294.295 1216.39 372.208 1232.01 382.719 1233.01C393.255 1234.01 473.83 1234.51 474.47 1234.52C474.49 1234.52 474.49 1234.52 474.51 1234.51L559.13 1229.99C559.14 1229.99 559.14 1229.99 559.14 1229.99H559.15C559.48 1229.96 626.97 1224.29 638.28 1223.12C649.54 1221.96 716.91 1209.58 717.98 1209.39C718.01 1209.38 717.97 1209.39 718 1209.38C719.04 1209.08 770.79 1194.02 776.28 1191.91C781.83 1189.78 811.37 1176.56 818.97 1171.1C826.56 1165.65 856.52 1137.52 862.65 1130.98C868.74 1124.48 895.54 1087.88 895.9 1087.39C895.91 1087.38 895.91 1087.37 895.92 1087.37V1087.36Z" fill="#F61C01"/>
<path d="M584.28 864.56C584.28 864.56 593.23 911.63 599.86 911.81C606.5 912 612.5 896 612.5 896L625 871.5L655.16 829.88L695.37 776.1L726.53 735.38L765.24 686.12L809.47 627.31L848.18 577.05L866.27 551.91L886.38 526.28L901.96 501.15L918.55 474.5L933.63 450.88L945.19 429.77C945.19 429.77 957.25 408.15 958.76 411.67C960.27 415.19 956.75 429.27 956.75 429.27L951.22 450.88L941.17 474.5L926.09 511.2L901.96 556.94L869.29 605.19L821.53 671.54L768.25 742.92L726.53 807.26L695.37 873.11L672.75 929.91L657.17 984.7C657.17 984.7 651.29 1010.19 653.15 1012.34C655 1014.5 667.72 1012.34 667.72 1012.34L710.45 1008.32L749.66 1002.79L792.38 993.24L833.6 981.18L885.37 963.08L938.65 938.96L976.35 919.35L1008.52 898.24L1044.71 867.58L1078.39 831.39L1094.98 810.78L1108.05 790.67L1122.62 771.57L1140.22 734.88L1166.35 673.05L1181.43 622.28L1191.49 554.43V449.87L1182.94 369.45L1166.35 285.004L1143.74 209.606L1124.13 138.23L1098.5 79.922L1075.88 27.143C1075.88 27.143 1064 0 1059.29 0C1054.58 0 1047 19.917 1045 23C1043 26.083 1025.11 51.773 1025.11 51.773L991.93 90.478L968.81 118.626L935.13 151.299L876.32 199.051L806.46 252.332L749.66 291.539L667.22 347.33L573.22 424.24L514.92 480.54L487.27 514.72L462.64 550.91L436.503 597.15L424.439 627.31L413.883 663L408.857 686.12C408.857 686.12 405.187 723.66 406.344 725.33C407.5 727 436.503 735.38 436.503 735.38L469.18 747.95L494.81 759.01L520.95 776.1L539.55 794.69L557.64 815.81L573.22 837.42L584.28 864.56Z" fill="url(#paint2_linear_663_14)"/>
<path d="M989.92 1029.94C989.92 1029.94 893.41 1158.62 895.93 1160.63C898.44 1162.64 936.64 1145.04 936.64 1145.04C936.64 1145.04 988.92 1127.95 1003.49 1123.93C1018.07 1119.91 1057.28 1111.87 1089.95 1104.83C1122.62 1097.79 1149.77 1093.27 1188.97 1087.74C1228.18 1082.21 1283.47 1075.17 1283.47 1075.17L1392.05 1072.66L1483.03 1080.2L1565.96 1096.79L1665.99 1117.9L1733.35 1143.54L1780.09 1168.17C1780.09 1168.17 1848.45 1204.36 1850.47 1202.35C1852.48 1200.34 1816.79 1168.17 1816.79 1168.17L1764.01 1117.9L1677.05 1054.06L1592.6 1017.87C1592.6 1017.87 1502.13 982.18 1489.06 979.67C1475.99 977.16 1422.71 967.61 1406.62 966.6C1390.54 965.6 1321.67 961.58 1305.59 961.58C1289.5 961.58 1173.89 973.14 1155.3 974.64C1136.7 976.15 1059.29 987.21 1038.68 993.24C1018.07 999.27 1027.12 996.76 1016.56 1004.8C1006.01 1012.85 989.92 1029.94 989.92 1029.94Z" fill="#0238D0"/>
<path d="M130.844 1499.44V1521.52H22.4216V1499.44H130.844ZM27.9056 1316.77V1521.52H0.765625V1316.77H27.9056ZM116.5 1404.8V1426.88H22.4216V1404.8H116.5ZM129.438 1316.77V1338.98H22.4216V1316.77H129.438ZM218.594 1502.95C224.781 1502.95 230.5 1501.69 235.75 1499.16C241 1496.62 245.312 1493.16 248.688 1488.75C252.062 1484.25 253.984 1479.14 254.453 1473.42H279.203C278.734 1482.42 275.688 1490.81 270.062 1498.59C264.531 1506.28 257.266 1512.52 248.266 1517.3C239.266 1521.98 229.375 1524.33 218.594 1524.33C207.156 1524.33 197.172 1522.31 188.641 1518.28C180.203 1514.25 173.172 1508.72 167.547 1501.69C162.016 1494.66 157.844 1486.59 155.031 1477.5C152.312 1468.31 150.953 1458.61 150.953 1448.39V1442.48C150.953 1432.27 152.312 1422.61 155.031 1413.52C157.844 1404.33 162.016 1396.22 167.547 1389.19C173.172 1382.16 180.203 1376.62 188.641 1372.59C197.172 1368.56 207.156 1366.55 218.594 1366.55C230.5 1366.55 240.906 1368.98 249.812 1373.86C258.719 1378.64 265.703 1385.2 270.766 1393.55C275.922 1401.8 278.734 1411.17 279.203 1421.67H254.453C253.984 1415.39 252.203 1409.72 249.109 1404.66C246.109 1399.59 241.984 1395.56 236.734 1392.56C231.578 1389.47 225.531 1387.92 218.594 1387.92C210.625 1387.92 203.922 1389.52 198.484 1392.7C193.141 1395.8 188.875 1400.02 185.688 1405.36C182.594 1410.61 180.344 1416.47 178.938 1422.94C177.625 1429.31 176.969 1435.83 176.969 1442.48V1448.39C176.969 1455.05 177.625 1461.61 178.938 1468.08C180.25 1474.55 182.453 1480.41 185.547 1485.66C188.734 1490.91 193 1495.12 198.344 1498.31C203.781 1501.41 210.531 1502.95 218.594 1502.95ZM301.562 1447.12V1443.89C301.562 1432.92 303.156 1422.75 306.344 1413.38C309.531 1403.91 314.125 1395.7 320.125 1388.77C326.125 1381.73 333.391 1376.3 341.922 1372.45C350.453 1368.52 360.016 1366.55 370.609 1366.55C381.297 1366.55 390.906 1368.52 399.438 1372.45C408.062 1376.3 415.375 1381.73 421.375 1388.77C427.469 1395.7 432.109 1403.91 435.297 1413.38C438.484 1422.75 440.078 1432.92 440.078 1443.89V1447.12C440.078 1458.09 438.484 1468.27 435.297 1477.64C432.109 1487.02 427.469 1495.22 421.375 1502.25C415.375 1509.19 408.109 1514.62 399.578 1518.56C391.141 1522.41 381.578 1524.33 370.891 1524.33C360.203 1524.33 350.594 1522.41 342.062 1518.56C333.531 1514.62 326.219 1509.19 320.125 1502.25C314.125 1495.22 309.531 1487.02 306.344 1477.64C303.156 1468.27 301.562 1458.09 301.562 1447.12ZM327.578 1443.89V1447.12C327.578 1454.72 328.469 1461.89 330.25 1468.64C332.031 1475.3 334.703 1481.2 338.266 1486.36C341.922 1491.52 346.469 1495.59 351.906 1498.59C357.344 1501.5 363.672 1502.95 370.891 1502.95C378.016 1502.95 384.25 1501.5 389.594 1498.59C395.031 1495.59 399.531 1491.52 403.094 1486.36C406.656 1481.2 409.328 1475.3 411.109 1468.64C412.984 1461.89 413.922 1454.72 413.922 1447.12V1443.89C413.922 1436.39 412.984 1429.31 411.109 1422.66C409.328 1415.91 406.609 1409.95 402.953 1404.8C399.391 1399.55 394.891 1395.42 389.453 1392.42C384.109 1389.42 377.828 1387.92 370.609 1387.92C363.484 1387.92 357.203 1389.42 351.766 1392.42C346.422 1395.42 341.922 1399.55 338.266 1404.8C334.703 1409.95 332.031 1415.91 330.25 1422.66C328.469 1429.31 327.578 1436.39 327.578 1443.89ZM511.23 1494.52L550.33 1369.36H567.48L564.11 1394.25L524.31 1521.52H507.58L511.23 1494.52ZM484.94 1369.36L518.27 1495.92L520.66 1521.52H503.08L458.92 1369.36H484.94ZM604.89 1494.94L636.67 1369.36H662.55L618.39 1521.52H600.95L604.89 1494.94ZM571.28 1369.36L609.53 1492.41L613.89 1521.52H597.3L556.38 1393.97L553 1369.36H571.28ZM778.98 1495.5V1417.17C778.98 1411.17 777.77 1405.97 775.33 1401.56C772.98 1397.06 769.42 1393.59 764.64 1391.16C759.86 1388.72 753.95 1387.5 746.92 1387.5C740.36 1387.5 734.59 1388.62 729.62 1390.88C724.75 1393.12 720.91 1396.08 718.09 1399.73C715.38 1403.39 714.02 1407.33 714.02 1411.55H688C688 1406.11 689.41 1400.72 692.22 1395.38C695.03 1390.03 699.06 1385.2 704.31 1380.89C709.66 1376.48 716.03 1373.02 723.44 1370.48C730.94 1367.86 739.28 1366.55 748.47 1366.55C759.53 1366.55 769.28 1368.42 777.72 1372.17C786.25 1375.92 792.91 1381.59 797.69 1389.19C802.56 1396.69 805 1406.11 805 1417.45V1488.33C805 1493.39 805.42 1498.78 806.27 1504.5C807.2 1510.22 808.56 1515.14 810.34 1519.27V1521.52H783.2C781.89 1518.52 780.86 1514.53 780.11 1509.56C779.36 1504.5 778.98 1499.81 778.98 1495.5ZM783.48 1429.27L783.77 1447.55H757.47C750.06 1447.55 743.45 1448.16 737.64 1449.38C731.83 1450.5 726.95 1452.23 723.02 1454.58C719.08 1456.92 716.08 1459.88 714.02 1463.44C711.95 1466.91 710.92 1470.98 710.92 1475.67C710.92 1480.45 712 1484.81 714.16 1488.75C716.31 1492.69 719.55 1495.83 723.86 1498.17C728.27 1500.42 733.66 1501.55 740.03 1501.55C748 1501.55 755.03 1499.86 761.12 1496.48C767.22 1493.11 772.05 1488.98 775.61 1484.11C779.27 1479.23 781.23 1474.5 781.52 1469.91L792.62 1482.42C791.97 1486.36 790.19 1490.72 787.28 1495.5C784.38 1500.28 780.48 1504.88 775.61 1509.28C770.83 1513.59 765.11 1517.2 758.45 1520.11C751.89 1522.92 744.48 1524.33 736.23 1524.33C725.92 1524.33 716.88 1522.31 709.09 1518.28C701.41 1514.25 695.41 1508.86 691.09 1502.11C686.88 1495.27 684.77 1487.62 684.77 1479.19C684.77 1471.03 686.36 1463.86 689.55 1457.67C692.73 1451.39 697.33 1446.19 703.33 1442.06C709.33 1437.84 716.55 1434.66 724.98 1432.5C733.42 1430.34 742.84 1429.27 753.25 1429.27H783.48ZM889.94 1498.03L931.56 1369.36H958.14L903.44 1521.52H886L889.94 1498.03ZM855.2 1369.36L898.09 1498.73L901.05 1521.52H883.61L828.48 1369.36H855.2ZM1044.34 1524.33C1033.75 1524.33 1024.14 1522.55 1015.52 1518.98C1006.98 1515.33 999.62 1510.22 993.44 1503.66C987.34 1497.09 982.66 1489.31 979.38 1480.31C976.09 1471.31 974.45 1461.47 974.45 1450.78V1444.88C974.45 1432.5 976.28 1421.48 979.94 1411.83C983.59 1402.08 988.56 1393.83 994.84 1387.08C1001.12 1380.33 1008.25 1375.22 1016.22 1371.75C1024.19 1368.28 1032.44 1366.55 1040.97 1366.55C1051.84 1366.55 1061.22 1368.42 1069.09 1372.17C1077.06 1375.92 1083.58 1381.17 1088.64 1387.92C1093.7 1394.58 1097.45 1402.45 1099.89 1411.55C1102.33 1420.55 1103.55 1430.39 1103.55 1441.08V1452.75H989.92V1431.52H1077.53V1429.55C1077.16 1422.8 1075.75 1416.23 1073.31 1409.86C1070.97 1403.48 1067.22 1398.23 1062.06 1394.11C1056.91 1389.98 1049.88 1387.92 1040.97 1387.92C1035.06 1387.92 1029.62 1389.19 1024.66 1391.72C1019.69 1394.16 1015.42 1397.81 1011.86 1402.69C1008.3 1407.56 1005.53 1413.52 1003.56 1420.55C1001.59 1427.58 1000.61 1435.69 1000.61 1444.88V1450.78C1000.61 1458 1001.59 1464.8 1003.56 1471.17C1005.62 1477.45 1008.58 1482.98 1012.42 1487.77C1016.36 1492.55 1021.09 1496.3 1026.62 1499.02C1032.25 1501.73 1038.62 1503.09 1045.75 1503.09C1054.94 1503.09 1062.72 1501.22 1069.09 1497.47C1075.47 1493.72 1081.05 1488.7 1085.83 1482.42L1101.58 1494.94C1098.3 1499.91 1094.12 1504.64 1089.06 1509.14C1084 1513.64 1077.77 1517.3 1070.36 1520.11C1063.05 1522.92 1054.38 1524.33 1044.34 1524.33ZM1343.03 1404.8V1426.88H1232.22V1404.8H1343.03ZM1236.44 1316.77V1521.52H1209.3V1316.77H1236.44ZM1366.66 1316.77V1521.52H1339.66V1316.77H1366.66ZM1480.98 1490.44L1541.31 1316.77H1570.7L1494.91 1521.52H1473.95L1480.98 1490.44ZM1424.59 1316.77L1484.36 1490.44L1491.81 1521.52H1470.86L1395.2 1316.77H1424.59ZM1663.38 1334.91L1595.59 1521.52H1567.89L1645.94 1316.77H1663.8L1663.38 1334.91ZM1720.19 1521.52L1652.27 1334.91L1651.84 1316.77H1669.7L1748.03 1521.52H1720.19ZM1716.67 1445.72V1467.94H1601.64V1445.72H1716.67ZM1897.38 1456.41H1924.38C1922.97 1469.34 1919.27 1480.92 1913.27 1491.14C1907.27 1501.36 1898.78 1509.47 1887.81 1515.47C1876.84 1521.38 1863.16 1524.33 1846.75 1524.33C1834.75 1524.33 1823.83 1522.08 1813.98 1517.58C1804.23 1513.08 1795.84 1506.7 1788.81 1498.45C1781.78 1490.11 1776.34 1480.12 1772.5 1468.5C1768.75 1456.78 1766.88 1443.75 1766.88 1429.41V1409.02C1766.88 1394.67 1768.75 1381.69 1772.5 1370.06C1776.34 1358.34 1781.83 1348.31 1788.95 1339.97C1796.17 1331.62 1804.84 1325.2 1814.97 1320.7C1825.09 1316.2 1836.48 1313.95 1849.14 1313.95C1864.61 1313.95 1877.69 1316.86 1888.38 1322.67C1899.06 1328.48 1907.36 1336.55 1913.27 1346.86C1919.27 1357.08 1922.97 1368.94 1924.38 1382.44H1897.38C1896.06 1372.88 1893.62 1364.67 1890.06 1357.83C1886.5 1350.89 1881.44 1345.55 1874.88 1341.8C1868.31 1338.05 1859.73 1336.17 1849.14 1336.17C1840.05 1336.17 1832.03 1337.91 1825.09 1341.38C1818.25 1344.84 1812.48 1349.77 1807.8 1356.14C1803.2 1362.52 1799.73 1370.16 1797.39 1379.06C1795.05 1387.97 1793.88 1397.86 1793.88 1408.73V1429.41C1793.88 1439.44 1794.91 1448.86 1796.97 1457.67C1799.12 1466.48 1802.36 1474.22 1806.67 1480.88C1810.98 1487.53 1816.47 1492.78 1823.12 1496.62C1829.78 1500.38 1837.66 1502.25 1846.75 1502.25C1858.28 1502.25 1867.47 1500.42 1874.31 1496.77C1881.16 1493.11 1886.31 1487.86 1889.78 1481.02C1893.34 1474.17 1895.88 1465.97 1897.38 1456.41Z" fill="#3CB371"/>
<defs>
<linearGradient id="paint0_linear_663_14" x1="1831.36" y1="814.3" x2="1070.85" y2="734.38" gradientUnits="userSpaceOnUse">
<stop stop-color="#00AA46"/>
<stop offset="1" stop-color="#07A748"/>
</linearGradient>
<linearGradient id="paint1_linear_663_14" x1="17.2896" y1="639.88" x2="314.861" y2="1070.65" gradientUnits="userSpaceOnUse">
<stop stop-color="#30B649"/>
<stop offset="1" stop-color="#00AA4F"/>
</linearGradient>
<linearGradient id="paint2_linear_663_14" x1="798.92" y1="0" x2="798.92" y2="1012.34" gradientUnits="userSpaceOnUse">
<stop stop-color="#99CA39"/>
<stop offset="1" stop-color="#00AB4F"/>
</linearGradient>
</defs>
</svg>
